<?xml version="1.0" encoding="utf-8"?>
<!-- Generator: Adobe Illustrator 26.1.0, SVG Export Plug-In . SVG Version: 6.00 Build 0)  -->
<svg version="1.1" id="logo" xmlns="http://www.w3.org/2000/svg" xmlns:xlink="http://www.w3.org/1999/xlink" x="0px" y="0px"
	 viewBox="0 0 100 114.15" style="enable-background:new 0 0 100 114.15;" xml:space="preserve">
<style type="text/css">
	.st0{fill:url(#SVGID_1_);}
	.st1{fill:url(#SVGID_00000164514445444847114190000008105926053608443535_);}
	.st2{fill:url(#SVGID_00000161602795318224543630000013686130705375539094_);}
	.st3{fill:url(#SVGID_00000142873467351235768740000017561334659586364598_);}
	.st4{fill:url(#SVGID_00000005963672795235935220000000280708386048309426_);}
	.st5{fill:url(#SVGID_00000093861983921989743630000012012507937967709056_);}
	.st6{fill:url(#SVGID_00000048476062247049274070000001170977666160981907_);}
	.st7{fill:url(#SVGID_00000123432299038223907250000011477643522536802982_);}
	.st8{fill:url(#SVGID_00000115483455664860969650000003599889267015981742_);}
	.st9{fill:url(#SVGID_00000013162459269872777230000000036679533429214593_);}
	.st10{fill:url(#SVGID_00000127737231929539302820000007424521128283343014_);}
</style>
<g>
	<g>
		<linearGradient id="SVGID_1_" gradientUnits="userSpaceOnUse" x1="-76.0977" y1="64.5642" x2="218.4342" y2="47.5581">
			<stop  offset="0.3125" style="stop-color:#EB0282"/>
			<stop  offset="0.3928" style="stop-color:#F8616F"/>
			<stop  offset="0.438" style="stop-color:#FF9165"/>
			<stop  offset="0.5553" style="stop-color:#FFC286"/>
			<stop  offset="0.6603" style="stop-color:#FFE79F"/>
			<stop  offset="0.7157" style="stop-color:#FFF5A9"/>
		</linearGradient>
		<path class="st0" d="M99.95,113.96c0.03,0.06,0.04,0.13,0.04,0.19c0,0.22-0.18,0.42-0.42,0.42H0.79c-0.34,0-0.54-0.38-0.34-0.66
			l32.05-46.15c0.18-0.26,0.51-0.32,0.76-0.19l0,0c0.08,0.04,0.16,0.1,0.22,0.19l9.27,13.21c0.27,0.38,0.27,0.9,0.01,1.28
			L32.34,97.23c-0.09,0.13-0.09,0.29-0.03,0.42c0.06,0.14,0.2,0.24,0.37,0.24h34.81c0.21,0,0.37-0.16,0.41-0.34
			c0.01-0.03,0.01-0.06,0.01-0.09c0-0.08-0.03-0.16-0.08-0.23l-0.76-1.08l-0.42-0.59c0-0.01-0.01-0.01-0.01-0.02l-1.08-1.54
			L38.24,55.05l-0.13-0.18l-0.01-0.01c0-0.01-0.01-0.01-0.02-0.03c-0.01-0.01-0.01-0.01-0.02-0.03L11.32,16.68L0.08,0.66
			C-0.12,0.38,0.08,0,0.42,0h99.15c0.34,0,0.54,0.38,0.35,0.66l-5.87,8.36L67.58,46.74c-0.24,0.34-0.74,0.34-0.98,0.01l-7.51-10.49
			l-1.83-2.56c-0.08-0.11-0.13-0.23-0.17-0.35c-0.09-0.32-0.04-0.67,0.16-0.95l10.22-14.56l0.06-0.09l0.29-0.41
			c0.04-0.06,0.06-0.11,0.07-0.17c0,0,0-0.01,0-0.01c0.04-0.24-0.14-0.48-0.41-0.48H32.5c-0.34,0-0.53,0.38-0.34,0.66l0.74,1.05
			l0.33,0.47c0,0,0,0,0.01,0.01L56.41,51.9l2.95,4.2l32.11,45.77l4.96,7.07l3.48,4.96C99.93,113.92,99.94,113.94,99.95,113.96z"/>
	</g>
	
		<linearGradient id="SVGID_00000089536537177777739330000012019625077666228121_" gradientUnits="userSpaceOnUse" x1="-50.8072" y1="90.1846" x2="165.7548" y2="120.0011">
		<stop  offset="0.345" style="stop-color:#EB0282"/>
		<stop  offset="0.5135" style="stop-color:#F8616F"/>
		<stop  offset="0.6082" style="stop-color:#FF9165"/>
		<stop  offset="0.6536" style="stop-color:#FFC286"/>
		<stop  offset="0.6943" style="stop-color:#FFE79F"/>
		<stop  offset="0.7157" style="stop-color:#FFF5A9"/>
	</linearGradient>
	<path style="fill:url(#SVGID_00000089536537177777739330000012019625077666228121_);" d="M99.57,114.57H78.2
		c-40.11-6.1-45.52-16.68-45.52-16.68l48.86,3.9l14.89,7.16l3.48,4.96C100.12,114.18,99.92,114.57,99.57,114.57z"/>
	
		<linearGradient id="SVGID_00000177459365826643449810000004342768243494767542_" gradientUnits="userSpaceOnUse" x1="-16.8309" y1="107.2511" x2="104.2625" y2="65.5197">
		<stop  offset="0.1997" style="stop-color:#EB0282"/>
		<stop  offset="0.3347" style="stop-color:#F8616F"/>
		<stop  offset="0.4106" style="stop-color:#FF9165"/>
		<stop  offset="0.476" style="stop-color:#FFC286"/>
		<stop  offset="0.5345" style="stop-color:#FFE79F"/>
		<stop  offset="0.5654" style="stop-color:#FFF5A9"/>
	</linearGradient>
	<path style="fill:url(#SVGID_00000177459365826643449810000004342768243494767542_);" d="M32.34,97.23
		c-0.09,0.13-0.09,0.29-0.03,0.42c-2.75,4.89-4.79,10.78-4.73,16.92H0.79c-0.34,0-0.54-0.38-0.34-0.66l32.05-46.15
		c0.24-0.34,0.74-0.34,0.98,0l9.27,13.21c0.27,0.38,0.27,0.9,0.01,1.28L32.34,97.23z"/>
	
		<linearGradient id="SVGID_00000057847877936460351510000001472541129512118412_" gradientUnits="userSpaceOnUse" x1="7.9173" y1="74.3949" x2="126.3573" y2="130.1172">
		<stop  offset="0.2702" style="stop-color:#EB0282"/>
		<stop  offset="0.5002" style="stop-color:#F8616F"/>
		<stop  offset="0.6294" style="stop-color:#FF9165"/>
		<stop  offset="0.6856" style="stop-color:#FFC286"/>
		<stop  offset="0.7358" style="stop-color:#FFE79F"/>
		<stop  offset="0.7622" style="stop-color:#FFF5A9"/>
	</linearGradient>
	<path style="fill:url(#SVGID_00000057847877936460351510000001472541129512118412_);" d="M67.83,97.22l-2.27-3.23l25.91,7.88
		l4.96,7.07l3.48,4.96c0.01,0.02,0.03,0.04,0.03,0.06c-23.38-11.54-67.27-16.08-67.27-16.08h34.81
		C67.83,97.88,68.03,97.5,67.83,97.22z"/>
	
		<linearGradient id="SVGID_00000069399190846953994930000015988326887613084806_" gradientUnits="userSpaceOnUse" x1="93.3708" y1="23.3598" x2="65.8715" y2="131.5478">
		<stop  offset="0.345" style="stop-color:#EB0282"/>
		<stop  offset="0.5247" style="stop-color:#F8616F"/>
		<stop  offset="0.6257" style="stop-color:#FF9165"/>
		<stop  offset="0.7839" style="stop-color:#FFC286"/>
		<stop  offset="0.9254" style="stop-color:#FFE79F"/>
		<stop  offset="1" style="stop-color:#FFF5A9"/>
	</linearGradient>
	<path style="fill:url(#SVGID_00000069399190846953994930000015988326887613084806_);" d="M67.07,96.14L56.41,51.9l35.06,49.97
		l4.96,7.07l3.48,4.96c0.01,0.02,0.03,0.04,0.03,0.06c0.03,0.06,0.04,0.13,0.04,0.19c-9.65-9.47-32.5-16.27-32.5-16.27L67.07,96.14z
		"/>
	
		<linearGradient id="SVGID_00000006679640746181567360000006275587074995774087_" gradientUnits="userSpaceOnUse" x1="19.7807" y1="-24.7758" x2="68.5076" y2="109.1024">
		<stop  offset="0.2911" style="stop-color:#EB0282"/>
		<stop  offset="0.511" style="stop-color:#F8616F"/>
		<stop  offset="0.6346" style="stop-color:#FF9165"/>
		<stop  offset="0.789" style="stop-color:#FFC286"/>
		<stop  offset="0.9272" style="stop-color:#FFE79F"/>
		<stop  offset="1" style="stop-color:#FFF5A9"/>
	</linearGradient>
	<path style="fill:url(#SVGID_00000006679640746181567360000006275587074995774087_);" d="M67.91,97.45c0-0.08-0.03-0.16-0.08-0.23
		l-0.76-1.08l-1.51-2.15L38.24,55.05l-5.01-36.19c0,0,0,0,0.01,0.01L56.41,51.9l2.95,4.2C65.04,68.24,69.06,82.47,67.91,97.45z"/>
	
		<linearGradient id="SVGID_00000059308563027467830510000017761914301360081818_" gradientUnits="userSpaceOnUse" x1="4.0731" y1="-21.9644" x2="59.0717" y2="97.1992">
		<stop  offset="0.1893" style="stop-color:#EB0282"/>
		<stop  offset="0.4488" style="stop-color:#F8616F"/>
		<stop  offset="0.5946" style="stop-color:#FF9165"/>
		<stop  offset="0.6618" style="stop-color:#FF986A"/>
		<stop  offset="0.7594" style="stop-color:#FFAB77"/>
		<stop  offset="0.8757" style="stop-color:#FFCB8D"/>
		<stop  offset="1" style="stop-color:#FFF5A9"/>
	</linearGradient>
	<path style="fill:url(#SVGID_00000059308563027467830510000017761914301360081818_);" d="M66.64,95.53l-1.08-1.54L38.24,55.05
		L11.32,16.68H32.5c0,0,0.13,0.6,0.4,1.71C34.92,26.73,44.8,64.01,66.64,95.53z"/>
	
		<linearGradient id="SVGID_00000176030739617079821340000000930344401219212974_" gradientUnits="userSpaceOnUse" x1="123.3891" y1="52.0144" x2="-17.9669" y2="6.1822">
		<stop  offset="0.2925" style="stop-color:#EB0282"/>
		<stop  offset="0.3596" style="stop-color:#EF1C7D"/>
		<stop  offset="0.5306" style="stop-color:#F75B70"/>
		<stop  offset="0.6559" style="stop-color:#FD8268"/>
		<stop  offset="0.7211" style="stop-color:#FF9165"/>
		<stop  offset="0.7623" style="stop-color:#FF986A"/>
		<stop  offset="0.8224" style="stop-color:#FFAB77"/>
		<stop  offset="0.8938" style="stop-color:#FFCB8D"/>
		<stop  offset="0.9702" style="stop-color:#FFF5A9"/>
	</linearGradient>
	<path style="fill:url(#SVGID_00000176030739617079821340000000930344401219212974_);" d="M67.9,17.16
		c0.04-0.24-0.14-0.48-0.41-0.48H32.5c-18.82,0,4.52,36.5,5.58,38.13L11.32,16.68L0.08,0.66C-0.12,0.38,0.08,0,0.42,0h50.39
		l16.5,3.37l3.01,14.47l-2.79-0.09l0.29-0.41C67.87,17.29,67.89,17.23,67.9,17.16C67.9,17.17,67.9,17.16,67.9,17.16z"/>
	
		<linearGradient id="SVGID_00000078032742597291167950000013581700921751873192_" gradientUnits="userSpaceOnUse" x1="21.2148" y1="21.3322" x2="85.2592" y2="-16.2985">
		<stop  offset="0" style="stop-color:#EB0282"/>
		<stop  offset="0.0645" style="stop-color:#F0247B"/>
		<stop  offset="0.1513" style="stop-color:#F54B73"/>
		<stop  offset="0.2373" style="stop-color:#F96A6D"/>
		<stop  offset="0.321" style="stop-color:#FD7F69"/>
		<stop  offset="0.4015" style="stop-color:#FE8D66"/>
		<stop  offset="0.475" style="stop-color:#FF9165"/>
		<stop  offset="0.5564" style="stop-color:#FF986A"/>
		<stop  offset="0.6746" style="stop-color:#FFAB77"/>
		<stop  offset="0.8154" style="stop-color:#FFCB8D"/>
		<stop  offset="0.966" style="stop-color:#FFF5A9"/>
	</linearGradient>
	<path style="fill:url(#SVGID_00000078032742597291167950000013581700921751873192_);" d="M99.92,0.66l-5.87,8.36L57.26,33.7
		c-0.08-0.11-0.13-0.23-0.17-0.35c-0.09-0.32-0.04-0.67,0.16-0.95l10.22-14.56c0.16-0.23,0.3-0.45,0.43-0.68c0,0,0-0.01,0-0.01
		C76.12,2.22,0.42,0,0.42,0h99.15C99.92,0,100.12,0.38,99.92,0.66z"/>
	
		<linearGradient id="SVGID_00000136401200005776866890000010574619816342814390_" gradientUnits="userSpaceOnUse" x1="43.556" y1="79.0355" x2="91.318" y2="-5.9952">
		<stop  offset="0.3509" style="stop-color:#EB0282"/>
		<stop  offset="0.5318" style="stop-color:#F8616F"/>
		<stop  offset="0.6335" style="stop-color:#FF9165"/>
		<stop  offset="0.6859" style="stop-color:#FF986A"/>
		<stop  offset="0.7622" style="stop-color:#FFAB77"/>
		<stop  offset="0.853" style="stop-color:#FFCB8D"/>
		<stop  offset="0.9501" style="stop-color:#FFF5A9"/>
	</linearGradient>
	<path style="fill:url(#SVGID_00000136401200005776866890000010574619816342814390_);" d="M98.81,2.25L67.58,46.74
		c-0.24,0.34-0.74,0.34-0.98,0.01L57.26,33.7c-0.08-0.11-0.13-0.23-0.17-0.35C62.02,30.36,86.56,15.16,98.81,2.25z"/>
	
		<linearGradient id="SVGID_00000074424521642970451120000001956974174860352418_" gradientUnits="userSpaceOnUse" x1="-0.4822" y1="138.6441" x2="38.1133" y2="55.1813">
		<stop  offset="0.233" style="stop-color:#EB0282"/>
		<stop  offset="0.459" style="stop-color:#F8616F"/>
		<stop  offset="0.5861" style="stop-color:#FF9165"/>
		<stop  offset="0.7254" style="stop-color:#FFC286"/>
		<stop  offset="0.85" style="stop-color:#FFE79F"/>
		<stop  offset="0.9157" style="stop-color:#FFF5A9"/>
	</linearGradient>
	<path style="fill:url(#SVGID_00000074424521642970451120000001956974174860352418_);" d="M21.17,114.57H0.79
		c-0.34,0-0.54-0.38-0.34-0.66l32.05-46.15c0.18-0.26,0.51-0.32,0.76-0.19l0,0l0.22,0.19C33.47,67.75,4.8,102.95,21.17,114.57z"/>
</g>
</svg>
